<?xml version="1.0" standalone="no"?>
<!DOCTYPE svg PUBLIC "-//W3C//DTD SVG 20010904//EN"
 "http://www.w3.org/TR/2001/REC-SVG-20010904/DTD/svg10.dtd">
<svg version="1.0" xmlns="http://www.w3.org/2000/svg"
 width="512.000000pt" height="512.000000pt" viewBox="0 0 512.000000 512.000000"
>

<g transform="translate(0.000000,512.000000) scale(0.100000,-0.100000)"
 fill="#9A3327" stroke="none">
<path d="M738 5099 c-23 -12 -46 -35 -58 -59 -19 -37 -20 -58 -20 -395 0 -195
3 -355 7 -355 4 0 161 99 350 221 l343 221 0 134 c0 160 -14 200 -80 234 -36
18 -58 20 -272 20 -212 -1 -236 -3 -270 -21z"/>
<path d="M2454 5078 c-39 -24 -598 -382 -1242 -797 -1288 -830 -1220 -781
-1210 -876 13 -108 123 -167 218 -117 19 10 554 352 1188 761 l1153 742 1175
-756 c895 -577 1184 -758 1213 -762 54 -7 107 13 137 52 49 64 41 146 -19 202
-31 28 -2378 1543 -2444 1577 -52 26 -92 20 -169 -26z"/>
<path d="M1758 3918 l-797 -513 800 -3 c439 -1 1159 -1 1599 0 l800 3 -792
510 c-435 281 -796 511 -803 513 -6 1 -369 -228 -807 -510z"/>
<path d="M258 3086 c-75 -20 -154 -79 -198 -147 -118 -183 -51 -418 146 -515
l59 -29 2295 0 2295 0 55 26 c70 33 141 104 176 177 25 49 28 69 29 147 0 80
-3 97 -29 149 -37 76 -101 140 -174 174 l-57 27 -2275 2 c-1817 1 -2284 -1
-2322 -11z"/>
<path d="M1960 1050 l0 -1050 600 0 600 0 0 1050 0 1050 -600 0 -600 0 0
-1050z m820 430 c70 -36 80 -70 80 -280 0 -210 -10 -244 -80 -280 -51 -26 -93
-25 -142 2 -70 40 -78 69 -78 280 1 209 8 233 76 274 48 29 92 30 144 4z"/>
<path d="M360 1895 l0 -195 650 0 650 0 0 195 0 195 -650 0 -650 0 0 -195z"/>
<path d="M3460 1895 l0 -195 650 0 650 0 0 195 0 195 -650 0 -650 0 0 -195z"/>
<path d="M253 1385 c-102 -31 -176 -96 -222 -195 -22 -46 -26 -69 -26 -140 0
-76 4 -93 33 -152 38 -77 92 -130 171 -167 l56 -26 698 -3 697 -3 0 351 0 350
-682 -1 c-535 0 -692 -3 -725 -14z"/>
<path d="M3460 1050 l0 -351 698 3 697 3 56 26 c79 37 133 90 171 167 29 59
33 76 33 152 0 71 -4 94 -26 141 -37 79 -90 133 -167 171 l-67 33 -697 3 -698
3 0 -351z"/>
<path d="M360 260 c0 -165 12 -200 78 -238 l40 -22 591 0 591 0 0 200 0 200
-650 0 -650 0 0 -140z"/>
<path d="M3460 200 l0 -200 590 0 c572 0 592 1 630 20 67 34 80 74 80 240 l0
140 -650 0 -650 0 0 -200z"/>
</g>
</svg>
