<?xml version="1.0" standalone="no"?>
<!DOCTYPE svg PUBLIC "-//W3C//DTD SVG 20010904//EN"
 "http://www.w3.org/TR/2001/REC-SVG-20010904/DTD/svg10.dtd">
<svg version="1.0" xmlns="http://www.w3.org/2000/svg"
 width="450.000000pt" height="767.000000pt" viewBox="0 0 450.000000 767.000000"
 preserveAspectRatio="xMidYMid meet"> 

<g transform="translate(0.000000,767.000000) scale(0.100000,-0.100000)"
stroke="none" fill="#9A3327">
<path d="M2098 7422 c-342 -228 -801 -666 -1109 -1062 -297 -381 -531 -818
-638 -1191 -33 -113 -65 -282 -76 -395 -17 -170 52 -254 208 -254 87 0 131 16
188 67 55 50 85 114 104 220 55 301 218 602 524 968 142 170 391 407 566 539
l50 38 6 -139 c3 -76 12 -595 19 -1154 17 -1261 4 -2201 -40 -2934 -5 -93 -12
-213 -15 -266 -2 -52 -9 -107 -14 -122 -16 -42 -80 -106 -161 -160 -88 -59
-213 -154 -253 -190 -35 -34 -36 -79 -2 -112 l24 -25 308 0 c411 1 475 13 643
125 201 134 268 304 257 650 -6 182 -14 254 -52 490 -24 151 -36 273 -56 550
-26 368 -19 2657 10 3139 l6 109 140 -145 c213 -219 618 -687 935 -1078 254
-313 317 -363 414 -326 106 40 170 194 131 311 -47 137 -266 548 -450 845
-331 531 -788 1049 -1189 1349 -196 145 -313 221 -344 221 -20 0 -63 -22 -134
-68z"/>
</g>
</svg>
